<?xml version="1.0"?>
<svg xmlns="http://www.w3.org/2000/svg" xmlns:xlink="http://www.w3.org/1999/xlink" version="1.1" id="Layer_1" x="0px" y="0px" viewBox="0 0 512 512" style="enable-background:new 0 0 512 512;" xml:space="preserve" width="512px" height="512px" class="hovered-paths"><g><polygon style="fill:#898989" points="229.079,316.798 197.732,316.798 197.732,223.613 453.732,175.107 453.732,88.698   378.976,88.698 378.976,57.351 485.079,57.351 485.079,201.073 229.079,249.578 " data-original="#898989" class=""/><path style="fill:#745739" d="M377.671,0H213.406l-20.915,70.356l20.915,75.693H377.67c12.272,0,22.221-9.948,22.221-22.221V22.221  C399.891,9.948,389.942,0,377.671,0z" data-original="#FFBE00" class="" data-old_color="#FFBE00"/><polygon style="fill:#653614" points="248.163,512 248.163,295.884 213.406,295.884 192.491,404.547 213.406,512 " data-original="#D14901" class="" data-old_color="#D14901"/><path style="fill:#745739" d="M49.142,0C36.869,0,26.921,9.948,26.921,22.221v101.608c0,12.272,9.948,22.221,22.221,22.221h164.265  V0H49.142z" data-original="#FFE074" class="active-path" data-old_color="#FFE074"/><rect x="178.646" y="295.884" style="fill:#745739" width="34.753" height="216.116" data-original="#F37A23" class="" data-old_color="#F37A23"/></g> </svg>
